<?xml version="1.0" standalone="no"?>
<!DOCTYPE svg PUBLIC "-//W3C//DTD SVG 20010904//EN"
 "http://www.w3.org/TR/2001/REC-SVG-20010904/DTD/svg10.dtd">
<svg version="1.0" xmlns="http://www.w3.org/2000/svg"
 width="360.000000pt" height="360.000000pt" viewBox="0 0 360.000000 360.000000"
 preserveAspectRatio="xMidYMid meet">

<g transform="translate(0.000000,360.000000) scale(0.100000,-0.100000)"
fill="#000000" stroke="none">
<path d="M1746 3479 c-15 -17 -34 -45 -43 -63 -8 -17 -46 -83 -83 -146 -37
-63 -109 -187 -159 -275 -50 -88 -96 -167 -101 -175 -5 -8 -22 -37 -38 -65
-16 -27 -106 -183 -199 -345 -352 -608 -429 -741 -558 -965 -73 -126 -162
-281 -199 -344 -73 -126 -83 -168 -44 -195 20 -14 177 -16 1484 -16 1403 0
1462 1 1477 18 39 43 29 64 -228 502 -17 30 -94 163 -170 295 -76 132 -171
295 -212 363 -40 68 -73 125 -73 127 0 4 -179 316 -190 330 -4 6 -18 30 -32
55 -24 43 -79 138 -253 440 -43 74 -118 205 -167 290 -49 85 -99 165 -110 178
-31 32 -71 29 -102 -9z m167 -392 c116 -203 212 -368 434 -752 234 -404 475
-821 601 -1040 63 -110 121 -209 128 -220 8 -11 14 -23 14 -27 0 -5 -580 -8
-1290 -8 -710 0 -1290 2 -1290 6 0 4 153 271 315 549 29 50 86 149 127 220 41
72 175 303 297 515 123 212 292 504 376 650 85 146 157 273 160 282 4 10 11
16 16 13 4 -3 55 -88 112 -188z"/>
<path d="M1874 2581 c-154 -70 -125 -294 42 -326 80 -14 171 45 192 125 22 89
-31 186 -115 209 -52 15 -72 13 -119 -8z"/>
<path d="M2033 2245 c-62 -12 -115 -23 -117 -26 -10 -10 -66 -130 -66 -140 0
-6 28 -85 61 -175 34 -91 60 -166 58 -169 -3 -2 -108 -22 -235 -44 l-231 -41
-282 2 c-154 2 -281 0 -281 -3 0 -4 45 -99 101 -213 l100 -206 245 0 244 0 0
185 0 186 -35 -7 c-62 -11 -70 -10 -73 12 -2 12 4 24 12 27 8 3 135 27 283 53
147 25 270 48 272 50 2 2 -1 15 -7 29 -11 24 -8 26 87 80 l99 56 -23 75 c-23
75 -31 88 -89 151 l-30 33 22 23 c20 21 21 27 10 54 l-13 30 -112 -22z"/>
<path d="M2200 2211 l-55 -48 60 -68 c33 -37 79 -89 103 -115 l42 -48 -117
-66 c-159 -88 -146 -78 -132 -109 7 -15 10 -29 8 -31 -4 -5 -527 -96 -548 -96
-6 0 -11 -7 -11 -16 0 -12 7 -14 28 -10 22 5 206 37 519 91 23 4 34 1 41 -11
8 -14 38 -2 231 97 121 63 221 116 221 119 -1 3 -24 30 -51 60 -28 30 -101
110 -162 178 -61 67 -113 122 -116 122 -3 0 -31 -22 -61 -49z"/>
<path d="M1883 1883 l2 -47 -120 -31 -120 -32 3 -34 c2 -19 7 -37 10 -40 7 -6
282 38 291 46 4 5 -59 185 -65 185 -2 0 -3 -21 -1 -47z"/>
<path d="M1210 1773 l0 -43 108 0 107 0 0 40 c0 22 -2 40 -5 40 -3 1 -51 2
-108 3 l-102 2 0 -42z"/>
<path d="M2228 1694 c-82 -41 -88 -43 -97 -25 -9 17 -15 17 -68 7 -46 -9 -58
-16 -58 -31 0 -12 -43 -49 -130 -112 -162 -117 -166 -120 -160 -135 2 -7 11
-80 20 -163 9 -82 19 -158 21 -167 5 -15 18 -18 84 -18 l79 0 3 146 3 145 220
96 c121 52 224 99 229 104 9 8 -40 186 -54 194 -3 1 -44 -17 -92 -41z"/>
<path d="M1102 1693 c3 -16 17 -18 106 -21 97 -3 102 -2 102 18 0 19 -6 20
-106 20 -95 0 -105 -2 -102 -17z"/>
<path d="M1330 1690 c0 -19 7 -20 105 -20 98 0 105 1 105 20 0 19 -7 20 -105
20 -98 0 -105 -1 -105 -20z"/>
<path d="M2290 1487 c-52 -24 -95 -47 -95 -53 0 -8 128 -122 218 -193 19 -15
63 -25 216 -46 58 -8 108 -12 112 -8 4 5 14 39 22 76 11 51 12 69 4 72 -16 5
-240 55 -248 55 -4 0 -33 32 -64 70 -31 39 -60 70 -64 69 -3 0 -49 -19 -101
-42z"/>
<path d="M1240 1204 c0 -44 53 -84 111 -84 22 0 41 10 65 34 58 58 50 66 -71
66 -89 0 -105 -2 -105 -16z"/>
<path d="M950 446 c0 -26 -5 -38 -17 -42 -45 -15 -47 -17 -18 -23 27 -6 30
-10 30 -46 0 -33 -4 -40 -23 -45 -31 -7 -28 -26 4 -23 22 2 24 -1 24 -48 0
-42 -3 -49 -20 -49 -12 0 -20 -7 -20 -16 0 -13 6 -15 27 -9 37 9 43 20 43 82
0 48 2 53 25 59 30 8 28 30 -3 26 -13 -2 -22 3 -24 15 -7 30 3 53 23 53 11 0
19 5 19 10 0 6 -9 10 -19 10 -16 0 -20 8 -23 37 -4 49 -28 57 -28 9z"/>
<path d="M1787 418 c-9 -95 -33 -153 -87 -208 -29 -30 -44 -53 -40 -60 12 -20
96 64 121 121 13 27 25 49 28 49 3 0 14 -19 24 -43 22 -56 99 -132 122 -123
14 5 9 14 -28 47 -56 49 -94 125 -104 209 -11 84 -28 88 -36 8z"/>
<path d="M2167 473 c-2 -4 -5 -33 -6 -63 -1 -30 -3 -55 -4 -56 -1 -1 -18 -4
-37 -6 l-35 -3 -3 53 c-4 75 -26 63 -30 -16 l-3 -62 56 0 55 0 0 -65 0 -65
-45 0 -45 0 0 50 c0 38 -4 50 -15 50 -12 0 -15 -14 -15 -65 l0 -65 123 0 c77
0 127 -4 134 -11 22 -22 33 3 33 72 0 59 -3 69 -17 69 -15 0 -18 -9 -18 -47
l0 -48 -50 -3 -50 -3 3 66 4 65 54 0 54 0 0 66 c0 48 -3 65 -12 62 -7 -3 -14
-25 -16 -51 l-3 -47 -39 0 -39 0 -3 62 c-3 55 -18 85 -31 61z"/>
<path d="M2415 459 c-4 -6 -5 -11 -4 -13 51 -34 69 -38 69 -15 0 15 -58 40
-65 28z"/>
<path d="M2537 424 c-4 -20 -16 -47 -27 -59 -15 -16 -18 -25 -10 -30 17 -11
51 27 59 66 6 31 10 34 41 34 34 0 35 -2 38 -40 2 -22 9 -43 15 -47 21 -14 67
-9 67 6 0 9 -12 16 -27 18 -25 3 -28 7 -31 46 l-3 42 -58 0 -58 0 -6 -36z"/>
<path d="M1037 443 c-17 -16 -3 -23 43 -23 l50 0 0 -125 0 -125 -30 0 c-16 0
-30 -5 -30 -10 0 -17 30 -24 59 -14 26 9 26 10 31 139 l5 130 33 3 c20 2 32 9
32 18 0 11 -19 14 -93 14 -52 0 -97 -3 -100 -7z"/>
<path d="M1290 424 c0 -9 18 -14 63 -16 l62 -3 0 -105 0 -105 -72 -3 c-40 -2
-73 -7 -73 -12 0 -6 67 -10 165 -10 98 0 165 4 165 10 0 5 -33 10 -72 12 l-73
3 -3 108 -3 107 66 0 c48 0 65 4 65 13 0 11 -31 14 -145 14 -115 1 -145 -2
-145 -13z"/>
<path d="M2396 363 c-11 -12 -6 -20 19 -31 32 -15 45 -15 45 -2 0 12 -55 41
-64 33z"/>
<path d="M2588 312 c-49 -1 -88 -7 -88 -12 0 -6 5 -10 10 -10 6 0 10 -5 10
-12 0 -6 11 -26 25 -44 14 -18 25 -35 25 -37 0 -2 -20 -10 -45 -17 -25 -7 -45
-16 -45 -21 0 -19 23 -18 70 2 46 20 52 20 82 6 57 -26 75 -29 82 -12 3 8 1
15 -5 15 -5 0 -26 7 -46 15 l-36 15 20 23 c11 12 28 36 37 54 19 38 18 39 -96
35z m62 -31 c0 -6 -11 -22 -24 -37 l-23 -28 -28 30 -27 29 48 6 c27 3 50 7 52
7 1 1 2 -2 2 -7z"/>
<path d="M2431 219 c-28 -46 -32 -69 -12 -69 11 0 61 109 52 114 -5 3 -22 -17
-40 -45z"/>
</g>
</svg>
